<?xml version="1.0" encoding="utf-8"?>
<!-- Generator: Adobe Illustrator 20.1.0, SVG Export Plug-In . SVG Version: 6.00 Build 0)  -->
<svg version="1.1" id="Layer_1" xmlns="http://www.w3.org/2000/svg" xmlns:xlink="http://www.w3.org/1999/xlink" x="0px" y="0px"
	 viewBox="0 0 486.7 262.6" style="enable-background:new 0 0 486.7 262.6;" xml:space="preserve">
<style type="text/css">
	.st0{fill:#CD2E27;}
	.st1{fill:#4FBA6F;}
	.st2{fill:#3AC0C9;}
	.st3{fill:#D04F27;}
	.st4{fill:#D06A28;}
	.st5{fill:#E57E25;}
	.st6{fill:#F0C419;}
	.st7{fill:#ADC637;}
	.st8{fill:#26B788;}
	.st9{fill:#28AE60;}
	.st10{fill:#17A186;}
	.st11{fill:#49C0B3;}
	.st12{fill:#09B6D1;}
	.st13{fill:#3680BF;}
	.st14{fill:#089CD3;}
	.st15{fill:#27589F;}
	.st16{fill:#F29D1F;}
	.st17{fill:#FFFFFF;}
	.st18{font-family:'Quicksand-Regular';}
	.st19{font-size:18.3363px;}
	.st20{opacity:0.4;fill:none;stroke:#FFFFFF;stroke-miterlimit:10;}
</style>
<g id="XMLID_94_">
	<path id="XMLID_112_" class="st0" d="M117.4,190.7c-2.5,1.5-5.5,2.3-8.6,2.3c-9.5,0-17.2-7.7-17.2-17.2c0-9.5,7.7-17.2,17.2-17.2
		c3.1,0,6.1,0.8,8.6,2.3L117.4,190.7z"/>
	<ellipse id="XMLID_111_" class="st1" cx="108.8" cy="86.5" rx="17.2" ry="17.2"/>
	<ellipse id="XMLID_110_" class="st2" cx="160.3" cy="116.3" rx="17.2" ry="17.2"/>
	<polygon id="XMLID_109_" class="st3" points="117.4,190.7 91.6,175.8 117.4,160.9 	"/>
	<polygon id="XMLID_108_" class="st4" points="91.6,146.1 117.4,160.9 91.6,175.8 	"/>
	<polygon id="XMLID_107_" class="st5" points="117.4,160.9 91.6,146.1 117.4,131.2 	"/>
	<polygon id="XMLID_106_" class="st6" points="117.4,131.2 91.6,116.3 117.4,101.4 	"/>
	<polygon id="XMLID_105_" class="st7" points="91.6,86.5 117.4,101.4 91.6,116.3 	"/>
	<polygon id="XMLID_104_" class="st8" points="117.4,71.6 143.1,86.5 117.4,101.4 	"/>
	<polygon id="XMLID_103_" class="st9" points="117.4,101.4 91.6,86.5 117.4,71.6 	"/>
	<polygon id="XMLID_102_" class="st10" points="143.1,116.3 117.4,101.4 143.1,86.5 	"/>
	<polygon id="XMLID_101_" class="st11" points="143.1,86.5 168.9,101.4 143.1,116.3 	"/>
	<polygon id="XMLID_100_" class="st12" points="168.9,131.2 143.1,116.3 168.9,101.4 	"/>
	<polygon id="XMLID_99_" class="st13" points="143.1,146.1 117.4,131.2 143.1,116.3 	"/>
	<polygon id="XMLID_98_" class="st14" points="143.1,116.3 168.9,131.2 143.1,146.1 	"/>
	<polygon id="XMLID_96_" class="st15" points="117.4,131.2 143.1,146.1 117.4,160.9 	"/>
	<polygon id="XMLID_95_" class="st16" points="91.6,116.3 117.4,131.2 91.6,146.1 	"/>
</g>
<text transform="matrix(1 0 0 1 250.0132 189.6371)" class="st17 st18 st19">CAPX Enterprise</text>
<rect x="1" class="st20" width="485.7" height="262.6"/>
<g id="XMLID_81_">
	<g id="XMLID_90_">
		<path id="XMLID_91_" class="st17" d="M225.8,118c-3.9,0-7.6,1.4-10.4,3.4c-0.3-1.8-2.1-3.4-4.2-3.4c-2.2,0-4,2-4,4.4v16.3
			c0,0.1,0,0.1,0,0.1v29.9v0c0,3.3,2.5,6,5.6,6c1,0,2-0.3,2.8-0.8v-0.2v-18c2.8,2.1,6.4,3.4,10.2,3.4c10.2,0,18.5-9.1,18.5-20.4
			C244.2,127.4,235.9,118,225.8,118z M235.9,138.7c0,6.4-4.6,11.7-10.1,11.7c-5.6,0-10.1-5.2-10.1-11.7s4.6-11.7,10.1-11.7
			C231.3,127,235.9,132.2,235.9,138.7z"/>
	</g>
	<path id="XMLID_87_" class="st17" d="M277.9,148.7c-1.9,1.6-5.2,2.3-7.9,2.1c-2.7-0.2-5.7-1.7-7.3-3.7c-1.4-1.4-2.2-3.5-2.6-5.4
		h24.3c2.1,0,3.7-1.3,4-3.3c0.1-0.2,0.1-0.6,0.1-0.7c0-0.2,0-0.3,0-0.4C287.8,126,279.9,118,270,118c-10.5,0-18.6,9.4-18.6,20.6
		c0.1,11.2,8.2,20.5,18.6,20.6c4.7,0,8.7-1.3,12.2-4.1c0,0,0,0,0,0c0,0,0,0,0,0c0,0,0,0,0,0l0,0c2.1-1.7,2.6-4.9,1-7.3
		c-0.5-0.8-1.4-1.5-2.4-1.9C279.5,147.4,277.9,148.7,277.9,148.7z M259.6,134.6c0.6-3.4,3.4-8.7,10.3-8.7c7.7,0,10.5,5.4,11.3,8.7
		H259.6z"/>
	<path id="XMLID_84_" class="st17" d="M321.6,148.7c-1.9,1.6-5.2,2.3-7.9,2.1c-2.7-0.2-5.7-1.7-7.3-3.7c-1.4-1.4-2.2-3.5-2.6-5.4
		H328c2.1,0,3.7-1.3,4-3.3c0.1-0.2,0.1-0.6,0.1-0.7c0-0.2,0-0.3,0-0.4c-0.6-11.1-8.5-19.1-18.4-19.1c-10.5,0-18.6,9.4-18.6,20.6
		c0.1,11.2,8.2,20.5,18.6,20.6c4.7,0,8.7-1.3,12.2-4.1c0,0,0,0,0,0c0,0,0,0,0,0c0,0,0,0,0,0l0,0c2.1-1.7,2.6-4.9,1-7.3
		c-0.5-0.8-1.4-1.5-2.4-1.9C323.3,147.4,321.6,148.7,321.6,148.7z M303.4,134.6c0.6-3.4,3.4-8.7,10.3-8.7c7.7,0,10.5,5.4,11.3,8.7
		H303.4z"/>
	<path id="XMLID_83_" class="st17" d="M396.2,140.9c-1.3-2.3-3.4-3.9-5.4-4.9c-2.2-1.2-4.6-1.9-7.1-2.4l-0.2,0
		c-2.6-0.5-4.6-1.2-5.6-2c-0.5-0.3-0.8-0.7-0.9-0.8c-0.1-0.2-0.1-0.3-0.1-0.7c0-0.4,0.2-1.2,1.2-1.9c1-0.8,2.7-1.5,4.6-1.5
		c2,0,3.8,0.9,5.8,2.2c0.1,0.1,0.2,0.2,0.3,0.2c2.5,1.7,5.8,0.8,7.4-1.9c0.4-0.8,0.7-1.6,0.8-2.4l0,0l0,0l-2.8-2.2
		c-2.4-1.8-6.2-4.5-11.5-4.5c-3.5,0-6.7,1.1-9.4,3c-2.5,2.1-4.5,5.3-4.5,9.1c0,1.9,0.5,3.7,1.3,5.2c1.4,2.2,3.2,3.7,5.3,4.8
		c2,1,4.3,1.6,6.6,2.1l0.1,0c2.8,0.6,5.1,1.5,6.1,2.3c0.6,0.4,0.9,0.7,1,1c0.1,0.2,0.2,0.5,0.2,0.9c0,0.7-0.3,1.6-1.4,2.5
		c-1.1,0.9-3.1,1.6-5.2,1.6c-2.6,0.1-5.5-1.4-7.6-2.9l0,0c-0.1-0.1-0.2-0.1-0.3-0.2c-2.5-1.7-5.8-0.8-7.4,1.9
		c-0.4,0.7-0.6,1.5-0.7,2.2l0,0l2.3,2.1c3.1,2.6,7.6,5.6,13.6,5.7c3.7,0,7.2-1.2,9.9-3.3c2.8-2.1,4.8-5.5,4.8-9.6
		C397.6,144.4,397.1,142.6,396.2,140.9z"/>
	<path id="XMLID_82_" class="st17" d="M362.4,118.3c-1.3-0.2-3.1-0.2-3.1-0.2c-3.8-0.1-7.1,1.4-9.6,3.2c-0.5,0.4-1.1,1.1-1.6,1.6
		v-0.6c0-2.4-1.9-4.3-4.2-4.3c-2.2,0-4,1.9-4,4.3v30.8c0,0,0,0.1,0,0.1c0,3.3,2.5,5.9,5.5,5.9c1,0,2-0.3,2.8-0.8v-10.2v-9
		c0.1-1.7,0.3-11.2,10.5-12.4c0,0,0.1,0,0.1,0c2.9-0.4,4.9-3.2,4.5-6.3C363.1,119.7,362.8,118.9,362.4,118.3z"/>
</g>
</svg>
